<svg width="28" height="28" viewBox="0 0 28 28" fill="none" xmlns="http://www.w3.org/2000/svg">
<path d="M21.6887 4.27677C21.8495 4.24253 21.9846 4.39784 21.9217 4.54468L19.9457 9.15895C19.9332 9.18798 19.9137 9.21365 19.8888 9.23381L12.3348 15.3478C12.3099 15.368 12.2803 15.3821 12.2485 15.3888L7.19422 16.4646C7.03338 16.4989 6.89828 16.3436 6.96116 16.1967L8.93722 11.5825C8.94965 11.5534 8.96914 11.5278 8.99405 11.5076L16.5481 5.39357C16.573 5.37341 16.6026 5.35936 16.6344 5.35259L21.6887 4.27677Z" fill="white"/>
<path d="M20.8059 11.5353C20.9667 11.5011 21.1018 11.6564 21.0389 11.8032L19.0629 16.4175C19.0504 16.4465 19.0309 16.4722 19.006 16.4924L11.4519 22.6064C11.427 22.6265 11.3974 22.6406 11.3657 22.6474L6.31141 23.7232C6.15057 23.7574 6.01547 23.6021 6.07835 23.4553L8.05441 18.841C8.06684 18.812 8.08633 18.7863 8.11124 18.7661L15.6653 12.6521C15.6902 12.632 15.7198 12.6179 15.7516 12.6111L20.8059 11.5353Z" fill="white"/>
</svg>
