<?xml version="1.0" standalone="no"?>
<!DOCTYPE svg PUBLIC "-//W3C//DTD SVG 20010904//EN"
 "http://www.w3.org/TR/2001/REC-SVG-20010904/DTD/svg10.dtd">
<svg version="1.0" xmlns="http://www.w3.org/2000/svg"
 width="700.000000pt" height="700.000000pt" viewBox="0 0 700.000000 700.000000"
 preserveAspectRatio="xMidYMid meet">
<metadata>
Created by potrace 1.14, written by Peter Selinger 2001-2017
</metadata>
<g transform="translate(0.000000,700.000000) scale(0.100000,-0.100000)"
fill="#000000" stroke="none">
<path d="M5365 5920 c-16 -5 -43 -12 -60 -14 -16 -3 -73 -15 -125 -27 -52 -11
-106 -23 -119 -25 -14 -3 -95 -20 -181 -39 -86 -19 -167 -36 -181 -39 -27 -5
-378 -80 -479 -102 -36 -7 -68 -14 -71 -14 -3 0 -14 -8 -25 -18 -10 -9 -55
-46 -99 -82 -95 -76 -291 -235 -465 -375 -316 -256 -628 -509 -658 -533 -50
-40 -77 -61 -183 -148 -53 -44 -112 -91 -130 -106 -19 -15 -47 -38 -64 -51
-16 -14 -88 -72 -158 -129 l-129 -103 -243 -568 c-133 -313 -246 -571 -249
-574 -8 -9 -7 -56 2 -69 14 -21 43 -23 105 -9 34 8 73 16 87 19 14 3 36 8 50
11 14 3 45 10 70 15 25 5 98 20 163 34 65 14 131 28 145 31 41 7 53 10 237 50
94 20 180 39 193 41 82 16 257 56 264 60 4 3 8 3 8 1 0 -3 -33 -31 -72 -63
-40 -33 -75 -61 -78 -64 -3 -3 -75 -61 -160 -130 -85 -68 -164 -132 -175 -141
-39 -33 -161 -130 -220 -177 -33 -25 -68 -53 -77 -62 -9 -8 -73 -60 -142 -115
l-125 -100 -255 -595 c-231 -537 -254 -596 -242 -615 19 -28 60 -27 206 6 25
6 56 13 70 15 14 3 79 17 145 31 66 14 128 27 138 29 10 2 26 5 35 8 9 3 28 7
42 10 14 2 70 14 125 26 55 12 109 23 119 26 102 20 232 48 330 69 l120 26
125 101 c69 56 171 138 226 183 55 45 127 103 160 129 33 27 69 56 81 65 21
19 179 146 579 469 132 107 252 204 266 216 73 58 331 268 396 321 l74 60 249
580 c137 319 249 591 250 605 0 52 -31 55 -190 19 -64 -15 -62 -15 -200 -43
-69 -15 -138 -29 -154 -32 -16 -3 -33 -7 -36 -9 -4 -3 -24 -7 -45 -11 -20 -3
-160 -32 -311 -65 -429 -92 -393 -86 -369 -63 11 11 90 75 175 144 85 68 196
158 245 198 50 41 102 84 117 95 15 12 130 105 257 207 l230 185 142 330 c78
182 149 348 159 370 10 22 61 141 113 265 85 199 95 227 83 245 -15 23 -64 29
-111 15z"/>
</g>
</svg>
